<svg xmlns="http://www.w3.org/2000/svg" xmlns:xlink="http://www.w3.org/1999/xlink" width="500" zoomAndPan="magnify" viewBox="0 0 375 374.999991" height="500" preserveAspectRatio="xMidYMid meet" version="1.0"><defs><g/><clipPath id="fdfa731926"><path d="M 141 61.027344 L 182 61.027344 L 182 106 L 141 106 Z M 141 61.027344 " clip-rule="nonzero"/></clipPath><clipPath id="89a80c53c4"><path d="M 112.453125 88 L 214 88 L 214 215.527344 L 112.453125 215.527344 Z M 112.453125 88 " clip-rule="nonzero"/></clipPath><clipPath id="5f24545b46"><path d="M 121 88 L 223 88 L 223 215.527344 L 121 215.527344 Z M 121 88 " clip-rule="nonzero"/></clipPath><clipPath id="aa0258dcba"><path d="M 151 61.027344 L 192 61.027344 L 192 106 L 151 106 Z M 151 61.027344 " clip-rule="nonzero"/></clipPath><clipPath id="20f200873a"><path d="M 171 145 L 254 145 L 254 215.527344 L 171 215.527344 Z M 171 145 " clip-rule="nonzero"/></clipPath><clipPath id="ec24fb88af"><path d="M 181 145 L 262.453125 145 L 262.453125 215.527344 L 181 215.527344 Z M 181 145 " clip-rule="nonzero"/></clipPath></defs><g clip-path="url(#fdfa731926)"><path fill="#100f0f" d="M 179.511719 105.003906 C 178.246094 105.003906 177.21875 103.976562 177.21875 102.710938 L 177.21875 81.105469 C 177.21875 72.605469 170.304688 65.691406 161.804688 65.691406 C 153.300781 65.691406 146.382812 72.605469 146.382812 81.105469 L 146.382812 102.710938 C 146.382812 103.976562 145.359375 105.003906 144.09375 105.003906 C 142.828125 105.003906 141.800781 103.976562 141.800781 102.710938 L 141.800781 81.105469 C 141.800781 70.082031 150.769531 61.109375 161.804688 61.109375 C 172.828125 61.109375 181.804688 70.082031 181.804688 81.105469 L 181.804688 102.710938 C 181.804688 103.976562 180.777344 105.003906 179.511719 105.003906 " fill-opacity="1" fill-rule="nonzero"/></g><g clip-path="url(#89a80c53c4)"><path fill="#f79326" d="M 213.296875 209.882812 C 213.296875 212.945312 210.792969 215.441406 207.730469 215.441406 L 118.015625 215.441406 C 114.953125 215.441406 112.445312 212.945312 112.445312 209.882812 L 122.878906 93.863281 C 122.878906 90.804688 125.386719 88.300781 128.449219 88.300781 L 197.296875 88.300781 C 200.359375 88.300781 202.863281 90.804688 202.863281 93.863281 L 213.296875 209.882812 " fill-opacity="1" fill-rule="nonzero"/></g><g clip-path="url(#5f24545b46)"><path fill="#f9af23" d="M 222.402344 209.882812 C 222.402344 212.945312 219.898438 215.441406 216.839844 215.441406 L 127.121094 215.441406 C 124.058594 215.441406 121.554688 212.945312 121.554688 209.882812 L 131.992188 93.863281 C 131.992188 90.804688 134.492188 88.300781 137.554688 88.300781 L 206.410156 88.300781 C 209.464844 88.300781 211.96875 90.804688 211.96875 93.863281 L 222.402344 209.882812 " fill-opacity="1" fill-rule="nonzero"/></g><path fill="#f79326" d="M 159.265625 102.710938 C 159.265625 105.648438 156.882812 108.03125 153.949219 108.03125 C 151.007812 108.03125 148.625 105.648438 148.625 102.710938 C 148.625 99.769531 151.007812 97.394531 153.949219 97.394531 C 156.882812 97.394531 159.265625 99.769531 159.265625 102.710938 " fill-opacity="1" fill-rule="nonzero"/><path fill="#f79326" d="M 195.328125 102.710938 C 195.328125 105.648438 192.945312 108.03125 190.011719 108.03125 C 187.074219 108.03125 184.691406 105.648438 184.691406 102.710938 C 184.691406 99.769531 187.074219 97.394531 190.011719 97.394531 C 192.945312 97.394531 195.328125 99.769531 195.328125 102.710938 " fill-opacity="1" fill-rule="nonzero"/><g clip-path="url(#aa0258dcba)"><path fill="#141515" d="M 189.6875 105.003906 C 188.421875 105.003906 187.398438 103.976562 187.398438 102.710938 L 187.398438 81.105469 C 187.398438 72.605469 180.484375 65.691406 171.976562 65.691406 C 163.476562 65.691406 156.5625 72.605469 156.5625 81.105469 L 156.5625 102.710938 C 156.5625 103.976562 155.535156 105.003906 154.269531 105.003906 C 153.003906 105.003906 151.976562 103.976562 151.976562 102.710938 L 151.976562 81.105469 C 151.976562 70.082031 160.953125 61.109375 171.976562 61.109375 C 183.011719 61.109375 191.980469 70.082031 191.980469 81.105469 L 191.980469 102.710938 C 191.980469 103.976562 190.953125 105.003906 189.6875 105.003906 " fill-opacity="1" fill-rule="nonzero"/></g><path fill="#100f0f" d="M 228.675781 162.015625 C 227.410156 162.015625 226.382812 160.996094 226.382812 159.730469 L 226.382812 138.128906 C 226.382812 129.625 219.46875 122.710938 210.96875 122.710938 C 202.46875 122.710938 195.546875 129.625 195.546875 138.128906 L 195.546875 159.730469 C 195.546875 160.996094 194.519531 162.015625 193.253906 162.015625 C 191.992188 162.015625 190.964844 160.996094 190.964844 159.730469 L 190.964844 138.128906 C 190.964844 127.101562 199.9375 118.125 210.96875 118.125 C 221.992188 118.125 230.96875 127.101562 230.96875 138.128906 L 230.96875 159.730469 C 230.96875 160.996094 229.941406 162.015625 228.675781 162.015625 " fill-opacity="1" fill-rule="nonzero"/><g clip-path="url(#20f200873a)"><path fill="#d22b34" d="M 253.355469 209.882812 C 253.355469 212.945312 250.851562 215.441406 247.789062 215.441406 L 177.542969 215.441406 C 174.480469 215.441406 171.976562 212.945312 171.976562 209.882812 L 172.046875 150.882812 C 172.046875 147.820312 174.550781 145.320312 177.613281 145.320312 L 246.460938 145.320312 C 249.523438 145.320312 252.027344 147.820312 252.027344 150.882812 L 253.355469 209.882812 " fill-opacity="1" fill-rule="nonzero"/></g><g clip-path="url(#ec24fb88af)"><path fill="#ef323d" d="M 262.460938 209.882812 C 262.460938 212.945312 259.957031 215.441406 256.894531 215.441406 L 186.652344 215.441406 C 183.589844 215.441406 181.082031 212.945312 181.082031 209.882812 L 181.152344 150.882812 C 181.152344 147.820312 183.65625 145.320312 186.71875 145.320312 L 255.566406 145.320312 C 258.628906 145.320312 261.132812 147.820312 261.132812 150.882812 L 262.460938 209.882812 " fill-opacity="1" fill-rule="nonzero"/></g><path fill="#d22b34" d="M 208.4375 159.730469 C 208.4375 162.667969 206.046875 165.042969 203.113281 165.042969 C 200.175781 165.042969 197.792969 162.667969 197.792969 159.730469 C 197.792969 156.789062 200.175781 154.40625 203.113281 154.40625 C 206.046875 154.40625 208.4375 156.789062 208.4375 159.730469 " fill-opacity="1" fill-rule="nonzero"/><path fill="#d22b34" d="M 244.492188 159.730469 C 244.492188 162.667969 242.113281 165.042969 239.171875 165.042969 C 236.238281 165.042969 233.855469 162.667969 233.855469 159.730469 C 233.855469 156.789062 236.238281 154.40625 239.171875 154.40625 C 242.113281 154.40625 244.492188 156.789062 244.492188 159.730469 " fill-opacity="1" fill-rule="nonzero"/><path fill="#141515" d="M 238.851562 162.015625 C 237.585938 162.015625 236.558594 160.996094 236.558594 159.730469 L 236.558594 138.128906 C 236.558594 129.625 229.644531 122.710938 221.144531 122.710938 C 212.640625 122.710938 205.726562 129.625 205.726562 138.128906 L 205.726562 159.730469 C 205.726562 160.996094 204.699219 162.015625 203.433594 162.015625 C 202.167969 162.015625 201.140625 160.996094 201.140625 159.730469 L 201.140625 138.128906 C 201.140625 127.101562 210.109375 118.125 221.144531 118.125 C 232.167969 118.125 241.144531 127.101562 241.144531 138.128906 L 241.144531 159.730469 C 241.144531 160.996094 240.117188 162.015625 238.851562 162.015625 " fill-opacity="1" fill-rule="nonzero"/><g fill="#ffffff" fill-opacity="1"><g transform="translate(94.06078, 263.955057)"><g><path d="M 14.753906 -23.117188 L 14.753906 -13.90625 L 7.140625 -13.90625 L 7.140625 -23.117188 L 2.039062 -23.117188 L 2.039062 0 L 7.140625 0 L 7.140625 -9.28125 L 14.753906 -9.28125 L 14.753906 0 L 20.195312 0 L 20.195312 -23.117188 Z M 14.753906 -23.117188 "/></g></g></g><g fill="#ffffff" fill-opacity="1"><g transform="translate(117.314233, 263.955057)"><g><path d="M 1.769531 -20.125 C 1.769531 -18.496094 3.09375 -17.132812 4.757812 -17.132812 C 6.390625 -17.132812 7.75 -18.496094 7.75 -20.125 C 7.75 -21.792969 6.390625 -23.117188 4.757812 -23.117188 C 3.09375 -23.117188 1.769531 -21.792969 1.769531 -20.125 Z M 7.308594 0 L 7.308594 -14.992188 L 2.210938 -14.992188 L 2.210938 0 Z M 7.308594 0 "/></g></g></g><g fill="#ffffff" fill-opacity="1"><g transform="translate(127.85314, 263.955057)"><g><path d="M 11.050781 -6.121094 L 11.050781 -8.941406 L 0.511719 -8.941406 L 0.511719 -6.121094 Z M 11.050781 -6.121094 "/></g></g></g><g fill="#ffffff" fill-opacity="1"><g transform="translate(140.431819, 263.955057)"><g><path d="M 2.039062 0 L 15.433594 0 L 15.433594 -4.625 L 7.140625 -4.625 L 7.140625 -23.117188 L 2.039062 -23.117188 Z M 2.039062 0 "/></g></g></g><g fill="#ffffff" fill-opacity="1"><g transform="translate(158.075918, 263.955057)"><g><path d="M 1.769531 -20.125 C 1.769531 -18.496094 3.09375 -17.132812 4.757812 -17.132812 C 6.390625 -17.132812 7.75 -18.496094 7.75 -20.125 C 7.75 -21.792969 6.390625 -23.117188 4.757812 -23.117188 C 3.09375 -23.117188 1.769531 -21.792969 1.769531 -20.125 Z M 7.308594 0 L 7.308594 -14.992188 L 2.210938 -14.992188 L 2.210938 0 Z M 7.308594 0 "/></g></g></g><g fill="#ffffff" fill-opacity="1"><g transform="translate(168.614827, 263.955057)"><g><path d="M 7.988281 -25.5 C 5.269531 -25.5 3.160156 -23.796875 3.160156 -20.09375 L 3.160156 -14.992188 L 1.019531 -14.992188 L 1.019531 -11.050781 L 3.160156 -11.050781 L 3.160156 0 L 8.261719 0 L 8.261719 -11.050781 L 11.761719 -11.050781 L 11.761719 -14.992188 L 8.261719 -14.992188 L 8.261719 -19.480469 C 8.261719 -20.941406 8.535156 -21.519531 9.585938 -21.519531 L 11.761719 -21.519531 L 11.761719 -25.5 Z M 7.988281 -25.5 "/></g></g></g><g fill="#ffffff" fill-opacity="1"><g transform="translate(181.975414, 263.955057)"><g><path d="M 6.664062 -9.28125 C 6.664062 -9.28125 6.832031 -12.070312 10.027344 -12.070312 C 13.121094 -12.070312 13.359375 -9.28125 13.359375 -9.28125 Z M 18.257812 -7.820312 C 18.257812 -12.613281 14.484375 -15.332031 9.925781 -15.332031 C 4.894531 -15.332031 1.191406 -12.171875 1.191406 -7.480469 C 1.191406 -2.71875 4.757812 0.339844 9.925781 0.339844 C 13.90625 0.339844 17.101562 -1.632812 17.984375 -5.574219 L 12.78125 -5.574219 C 12.75 -4.488281 11.628906 -3.296875 9.824219 -3.296875 C 7.820312 -3.296875 6.59375 -5.132812 6.59375 -6.867188 L 18.222656 -6.867188 C 18.222656 -7.171875 18.257812 -7.511719 18.257812 -7.820312 Z M 18.257812 -7.820312 "/></g></g></g><g fill="#ffffff" fill-opacity="1"><g transform="translate(202.441185, 263.955057)"><g><path d="M 15.910156 -10.4375 C 15.46875 -13.871094 12.578125 -15.332031 8.636719 -15.332031 C 3.671875 -15.332031 1.324219 -13.632812 1.324219 -10.574219 C 1.324219 -5.132812 11.015625 -7.617188 11.015625 -4.453125 C 11.015625 -3.636719 10.027344 -3.195312 8.875 -3.195312 C 7.75 -3.195312 5.746094 -3.332031 5.746094 -5.574219 L 0.679688 -5.574219 C 0.953125 -1.324219 4.316406 0.339844 8.769531 0.339844 C 13.121094 0.339844 16.148438 -0.953125 16.148438 -4.488281 C 16.148438 -10.8125 6.460938 -8.667969 6.460938 -10.777344 C 6.460938 -11.660156 7.511719 -12.171875 8.5 -12.171875 C 9.484375 -12.171875 10.742188 -11.796875 10.914062 -10.4375 Z M 15.910156 -10.4375 "/></g></g></g><g fill="#ffffff" fill-opacity="1"><g transform="translate(220.629222, 263.955057)"><g><path d="M 8.464844 -11.050781 L 11.183594 -11.050781 L 11.183594 -14.992188 L 8.464844 -14.992188 L 8.464844 -20.703125 L 3.398438 -20.703125 L 3.398438 -14.992188 L 0.679688 -14.992188 L 0.679688 -11.050781 L 3.398438 -11.050781 L 3.398438 0 L 8.464844 0 Z M 8.464844 -11.050781 "/></g></g></g><g fill="#ffffff" fill-opacity="1"><g transform="translate(233.513861, 263.955057)"><g><path d="M 8.125 8.5 L 11.390625 0 L 17.101562 -14.992188 L 11.933594 -14.992188 L 8.363281 -4.285156 L 4.792969 -14.992188 L -0.339844 -14.992188 L 5.371094 0 L 6.222656 0 L 2.820312 8.5 Z M 8.125 8.5 "/></g></g></g><g fill="#ffffff" fill-opacity="1"><g transform="translate(251.293939, 263.955057)"><g><path d="M 7.140625 0 L 7.140625 -25.5 L 2.039062 -25.5 L 2.039062 0 Z M 7.140625 0 "/></g></g></g><g fill="#ffffff" fill-opacity="1"><g transform="translate(261.49289, 263.955057)"><g><path d="M 6.664062 -9.28125 C 6.664062 -9.28125 6.832031 -12.070312 10.027344 -12.070312 C 13.121094 -12.070312 13.359375 -9.28125 13.359375 -9.28125 Z M 18.257812 -7.820312 C 18.257812 -12.613281 14.484375 -15.332031 9.925781 -15.332031 C 4.894531 -15.332031 1.191406 -12.171875 1.191406 -7.480469 C 1.191406 -2.71875 4.757812 0.339844 9.925781 0.339844 C 13.90625 0.339844 17.101562 -1.632812 17.984375 -5.574219 L 12.78125 -5.574219 C 12.75 -4.488281 11.628906 -3.296875 9.824219 -3.296875 C 7.820312 -3.296875 6.59375 -5.132812 6.59375 -6.867188 L 18.222656 -6.867188 C 18.222656 -7.171875 18.257812 -7.511719 18.257812 -7.820312 Z M 18.257812 -7.820312 "/></g></g></g><g fill="#d9d9d9" fill-opacity="1"><g transform="translate(135.247041, 287.30503)"><g><path d="M 0.90625 0 L 0.90625 -7.140625 L 2.40625 -7.140625 L 2.40625 -1.25 L 5.3125 -1.25 L 5.3125 0 Z M 0.90625 0 "/></g></g></g><g fill="#d9d9d9" fill-opacity="1"><g transform="translate(141.354256, 287.30503)"><g><path d="M 0.90625 0 L 0.90625 -7.140625 L 2.40625 -7.140625 L 2.40625 0 Z M 0.90625 0 "/></g></g></g><g fill="#d9d9d9" fill-opacity="1"><g transform="translate(145.123512, 287.30503)"><g><path d="M 2.390625 0 L 0.90625 0 L 0.90625 -7.140625 L 4.984375 -7.140625 L 4.984375 -5.90625 L 2.390625 -5.90625 L 2.390625 -4.0625 L 4.8125 -4.0625 L 4.8125 -2.828125 L 2.390625 -2.828125 Z M 2.390625 0 "/></g></g></g><g fill="#d9d9d9" fill-opacity="1"><g transform="translate(151.069651, 287.30503)"><g><path d="M 5.015625 0 L 0.90625 0 L 0.90625 -7.140625 L 5.015625 -7.140625 L 5.015625 -5.90625 L 2.40625 -5.90625 L 2.40625 -4.328125 L 4.828125 -4.328125 L 4.828125 -3.09375 L 2.40625 -3.09375 L 2.40625 -1.25 L 5.015625 -1.25 Z M 5.015625 0 "/></g></g></g><g fill="#d9d9d9" fill-opacity="1"><g transform="translate(157.128057, 287.30503)"><g><path d="M 5.109375 -1.984375 C 5.109375 -1.335938 4.875 -0.828125 4.40625 -0.453125 C 3.945312 -0.0859375 3.304688 0.09375 2.484375 0.09375 C 1.722656 0.09375 1.046875 -0.046875 0.453125 -0.328125 L 0.453125 -1.734375 C 0.941406 -1.523438 1.351562 -1.375 1.6875 -1.28125 C 2.019531 -1.195312 2.320312 -1.15625 2.59375 -1.15625 C 2.925781 -1.15625 3.179688 -1.21875 3.359375 -1.34375 C 3.535156 -1.46875 3.625 -1.65625 3.625 -1.90625 C 3.625 -2.050781 3.582031 -2.175781 3.5 -2.28125 C 3.425781 -2.394531 3.3125 -2.5 3.15625 -2.59375 C 3.007812 -2.695312 2.703125 -2.859375 2.234375 -3.078125 C 1.804688 -3.285156 1.484375 -3.484375 1.265625 -3.671875 C 1.046875 -3.859375 0.867188 -4.078125 0.734375 -4.328125 C 0.609375 -4.578125 0.546875 -4.867188 0.546875 -5.203125 C 0.546875 -5.835938 0.757812 -6.332031 1.1875 -6.6875 C 1.613281 -7.050781 2.203125 -7.234375 2.953125 -7.234375 C 3.328125 -7.234375 3.679688 -7.191406 4.015625 -7.109375 C 4.359375 -7.023438 4.710938 -6.898438 5.078125 -6.734375 L 4.59375 -5.5625 C 4.207031 -5.71875 3.890625 -5.828125 3.640625 -5.890625 C 3.390625 -5.953125 3.144531 -5.984375 2.90625 -5.984375 C 2.625 -5.984375 2.40625 -5.914062 2.25 -5.78125 C 2.09375 -5.644531 2.015625 -5.472656 2.015625 -5.265625 C 2.015625 -5.128906 2.046875 -5.007812 2.109375 -4.90625 C 2.171875 -4.8125 2.269531 -4.71875 2.40625 -4.625 C 2.539062 -4.53125 2.863281 -4.363281 3.375 -4.125 C 4.039062 -3.800781 4.492188 -3.476562 4.734375 -3.15625 C 4.984375 -2.84375 5.109375 -2.453125 5.109375 -1.984375 Z M 5.109375 -1.984375 "/></g></g></g><g fill="#d9d9d9" fill-opacity="1"><g transform="translate(163.093719, 287.30503)"><g><path d="M 3.65625 0 L 2.140625 0 L 2.140625 -5.875 L 0.203125 -5.875 L 0.203125 -7.140625 L 5.59375 -7.140625 L 5.59375 -5.875 L 3.65625 -5.875 Z M 3.65625 0 "/></g></g></g><g fill="#d9d9d9" fill-opacity="1"><g transform="translate(169.342473, 287.30503)"><g><path d="M 3.125 -4.203125 L 4.609375 -7.140625 L 6.234375 -7.140625 L 3.875 -2.78125 L 3.875 0 L 2.375 0 L 2.375 -2.734375 L 0 -7.140625 L 1.640625 -7.140625 Z M 3.125 -4.203125 "/></g></g></g><g fill="#d9d9d9" fill-opacity="1"><g transform="translate(176.04027, 287.30503)"><g><path d="M 0.90625 0 L 0.90625 -7.140625 L 2.40625 -7.140625 L 2.40625 -1.25 L 5.3125 -1.25 L 5.3125 0 Z M 0.90625 0 "/></g></g></g><g fill="#d9d9d9" fill-opacity="1"><g transform="translate(182.147484, 287.30503)"><g><path d="M 5.015625 0 L 0.90625 0 L 0.90625 -7.140625 L 5.015625 -7.140625 L 5.015625 -5.90625 L 2.40625 -5.90625 L 2.40625 -4.328125 L 4.828125 -4.328125 L 4.828125 -3.09375 L 2.40625 -3.09375 L 2.40625 -1.25 L 5.015625 -1.25 Z M 5.015625 0 "/></g></g></g><g fill="#d9d9d9" fill-opacity="1"><g transform="translate(188.205888, 287.30503)"><g/></g></g><g fill="#d9d9d9" fill-opacity="1"><g transform="translate(191.262531, 287.30503)"><g><path d="M 0.90625 0 L 0.90625 -7.140625 L 2.40625 -7.140625 L 2.40625 0 Z M 0.90625 0 "/></g></g></g><g fill="#d9d9d9" fill-opacity="1"><g transform="translate(195.031785, 287.30503)"><g><path d="M 5.109375 -1.984375 C 5.109375 -1.335938 4.875 -0.828125 4.40625 -0.453125 C 3.945312 -0.0859375 3.304688 0.09375 2.484375 0.09375 C 1.722656 0.09375 1.046875 -0.046875 0.453125 -0.328125 L 0.453125 -1.734375 C 0.941406 -1.523438 1.351562 -1.375 1.6875 -1.28125 C 2.019531 -1.195312 2.320312 -1.15625 2.59375 -1.15625 C 2.925781 -1.15625 3.179688 -1.21875 3.359375 -1.34375 C 3.535156 -1.46875 3.625 -1.65625 3.625 -1.90625 C 3.625 -2.050781 3.582031 -2.175781 3.5 -2.28125 C 3.425781 -2.394531 3.3125 -2.5 3.15625 -2.59375 C 3.007812 -2.695312 2.703125 -2.859375 2.234375 -3.078125 C 1.804688 -3.285156 1.484375 -3.484375 1.265625 -3.671875 C 1.046875 -3.859375 0.867188 -4.078125 0.734375 -4.328125 C 0.609375 -4.578125 0.546875 -4.867188 0.546875 -5.203125 C 0.546875 -5.835938 0.757812 -6.332031 1.1875 -6.6875 C 1.613281 -7.050781 2.203125 -7.234375 2.953125 -7.234375 C 3.328125 -7.234375 3.679688 -7.191406 4.015625 -7.109375 C 4.359375 -7.023438 4.710938 -6.898438 5.078125 -6.734375 L 4.59375 -5.5625 C 4.207031 -5.71875 3.890625 -5.828125 3.640625 -5.890625 C 3.390625 -5.953125 3.144531 -5.984375 2.90625 -5.984375 C 2.625 -5.984375 2.40625 -5.914062 2.25 -5.78125 C 2.09375 -5.644531 2.015625 -5.472656 2.015625 -5.265625 C 2.015625 -5.128906 2.046875 -5.007812 2.109375 -4.90625 C 2.171875 -4.8125 2.269531 -4.71875 2.40625 -4.625 C 2.539062 -4.53125 2.863281 -4.363281 3.375 -4.125 C 4.039062 -3.800781 4.492188 -3.476562 4.734375 -3.15625 C 4.984375 -2.84375 5.109375 -2.453125 5.109375 -1.984375 Z M 5.109375 -1.984375 "/></g></g></g><g fill="#d9d9d9" fill-opacity="1"><g transform="translate(200.997447, 287.30503)"><g/></g></g><g fill="#d9d9d9" fill-opacity="1"><g transform="translate(204.054089, 287.30503)"><g><path d="M 3.125 -4.203125 L 4.609375 -7.140625 L 6.234375 -7.140625 L 3.875 -2.78125 L 3.875 0 L 2.375 0 L 2.375 -2.734375 L 0 -7.140625 L 1.640625 -7.140625 Z M 3.125 -4.203125 "/></g></g></g><g fill="#d9d9d9" fill-opacity="1"><g transform="translate(210.751886, 287.30503)"><g><path d="M 7.375 -3.578125 C 7.375 -2.398438 7.082031 -1.492188 6.5 -0.859375 C 5.914062 -0.222656 5.078125 0.09375 3.984375 0.09375 C 2.890625 0.09375 2.046875 -0.222656 1.453125 -0.859375 C 0.867188 -1.492188 0.578125 -2.40625 0.578125 -3.59375 C 0.578125 -4.78125 0.867188 -5.6875 1.453125 -6.3125 C 2.046875 -6.9375 2.890625 -7.25 3.984375 -7.25 C 5.085938 -7.25 5.925781 -6.929688 6.5 -6.296875 C 7.082031 -5.671875 7.375 -4.765625 7.375 -3.578125 Z M 2.171875 -3.578125 C 2.171875 -2.785156 2.320312 -2.1875 2.625 -1.78125 C 2.925781 -1.375 3.378906 -1.171875 3.984375 -1.171875 C 5.191406 -1.171875 5.796875 -1.972656 5.796875 -3.578125 C 5.796875 -5.179688 5.191406 -5.984375 3.984375 -5.984375 C 3.390625 -5.984375 2.9375 -5.78125 2.625 -5.375 C 2.320312 -4.976562 2.171875 -4.378906 2.171875 -3.578125 Z M 2.171875 -3.578125 "/></g></g></g><g fill="#d9d9d9" fill-opacity="1"><g transform="translate(219.167762, 287.30503)"><g><path d="M 6.703125 -7.140625 L 6.703125 -2.515625 C 6.703125 -1.992188 6.582031 -1.53125 6.34375 -1.125 C 6.113281 -0.726562 5.773438 -0.425781 5.328125 -0.21875 C 4.878906 -0.0078125 4.351562 0.09375 3.75 0.09375 C 2.832031 0.09375 2.117188 -0.140625 1.609375 -0.609375 C 1.097656 -1.078125 0.84375 -1.722656 0.84375 -2.546875 L 0.84375 -7.140625 L 2.359375 -7.140625 L 2.359375 -2.765625 C 2.359375 -2.210938 2.46875 -1.804688 2.6875 -1.546875 C 2.90625 -1.296875 3.273438 -1.171875 3.796875 -1.171875 C 4.285156 -1.171875 4.640625 -1.300781 4.859375 -1.5625 C 5.085938 -1.820312 5.203125 -2.226562 5.203125 -2.78125 L 5.203125 -7.140625 Z M 6.703125 -7.140625 "/></g></g></g><g fill="#d9d9d9" fill-opacity="1"><g transform="translate(227.183404, 287.30503)"><g><path d="M 2.40625 -3.96875 L 2.90625 -3.96875 C 3.382812 -3.96875 3.734375 -4.046875 3.953125 -4.203125 C 4.179688 -4.367188 4.296875 -4.625 4.296875 -4.96875 C 4.296875 -5.300781 4.179688 -5.539062 3.953125 -5.6875 C 3.722656 -5.832031 3.363281 -5.90625 2.875 -5.90625 L 2.40625 -5.90625 Z M 2.40625 -2.734375 L 2.40625 0 L 0.90625 0 L 0.90625 -7.140625 L 2.984375 -7.140625 C 3.953125 -7.140625 4.664062 -6.960938 5.125 -6.609375 C 5.59375 -6.253906 5.828125 -5.71875 5.828125 -5 C 5.828125 -4.582031 5.710938 -4.207031 5.484375 -3.875 C 5.253906 -3.550781 4.925781 -3.296875 4.5 -3.109375 C 5.570312 -1.503906 6.273438 -0.46875 6.609375 0 L 4.921875 0 L 3.21875 -2.734375 Z M 2.40625 -2.734375 "/></g></g></g><g fill="#d9d9d9" fill-opacity="1"><g transform="translate(234.242388, 287.30503)"><g><path d="M 5.109375 -1.984375 C 5.109375 -1.335938 4.875 -0.828125 4.40625 -0.453125 C 3.945312 -0.0859375 3.304688 0.09375 2.484375 0.09375 C 1.722656 0.09375 1.046875 -0.046875 0.453125 -0.328125 L 0.453125 -1.734375 C 0.941406 -1.523438 1.351562 -1.375 1.6875 -1.28125 C 2.019531 -1.195312 2.320312 -1.15625 2.59375 -1.15625 C 2.925781 -1.15625 3.179688 -1.21875 3.359375 -1.34375 C 3.535156 -1.46875 3.625 -1.65625 3.625 -1.90625 C 3.625 -2.050781 3.582031 -2.175781 3.5 -2.28125 C 3.425781 -2.394531 3.3125 -2.5 3.15625 -2.59375 C 3.007812 -2.695312 2.703125 -2.859375 2.234375 -3.078125 C 1.804688 -3.285156 1.484375 -3.484375 1.265625 -3.671875 C 1.046875 -3.859375 0.867188 -4.078125 0.734375 -4.328125 C 0.609375 -4.578125 0.546875 -4.867188 0.546875 -5.203125 C 0.546875 -5.835938 0.757812 -6.332031 1.1875 -6.6875 C 1.613281 -7.050781 2.203125 -7.234375 2.953125 -7.234375 C 3.328125 -7.234375 3.679688 -7.191406 4.015625 -7.109375 C 4.359375 -7.023438 4.710938 -6.898438 5.078125 -6.734375 L 4.59375 -5.5625 C 4.207031 -5.71875 3.890625 -5.828125 3.640625 -5.890625 C 3.390625 -5.953125 3.144531 -5.984375 2.90625 -5.984375 C 2.625 -5.984375 2.40625 -5.914062 2.25 -5.78125 C 2.09375 -5.644531 2.015625 -5.472656 2.015625 -5.265625 C 2.015625 -5.128906 2.046875 -5.007812 2.109375 -4.90625 C 2.171875 -4.8125 2.269531 -4.71875 2.40625 -4.625 C 2.539062 -4.53125 2.863281 -4.363281 3.375 -4.125 C 4.039062 -3.800781 4.492188 -3.476562 4.734375 -3.15625 C 4.984375 -2.84375 5.109375 -2.453125 5.109375 -1.984375 Z M 5.109375 -1.984375 "/></g></g></g></svg>