<svg width="24" height="24" viewBox="0 0 24 24" fill="none" xmlns="http://www.w3.org/2000/svg">
<g clip-path="url(#clip0_45247_17)">
<path d="M24 7.70686L21.7496 16.7704C20.7614 19.584 20.0725 20.4409 18 20.4409H6C3.92894 20.4409 3.10587 19.7873 2.25034 16.7704L0 7.70686H4.44987L8.47341 3.54636H15.5322L19.5558 7.70686H24ZM3.75106 16.8155C3.79058 17.3949 4.04167 17.9396 4.45659 18.3459C4.87151 18.7523 5.4213 18.9919 6.0014 19.0193H18.0014C19.2438 19.0193 19.9525 18.1652 20.2517 16.8155L22.08 9.13129H1.92282L3.75106 16.8155ZM14.6809 4.92141H9.31623L6.56188 7.70686H17.4325L14.6809 4.92141ZM15.528 11.9732H16.9398V16.1647H15.528V11.9732ZM11.2927 11.9732H12.7045V16.1774H11.2927V11.9732ZM7.0574 11.9732H8.46917V16.1774H7.0574V11.9732Z" fill="#444444"/>
</g>
<defs>
<clipPath id="clip0_45247_17">
<rect width="24" height="24" fill="white"/>
</clipPath>
</defs>
</svg>
