<svg width="76" height="76" viewBox="0 0 76 76" fill="none" xmlns="http://www.w3.org/2000/svg">
<circle cx="38" cy="38" r="38" fill="#E4E4E4"/>
<path d="M62.3522 49.8549L61.5747 47.0883C61.3966 46.4539 60.9635 45.9096 60.3877 45.5944C60.3291 45.5624 60.2636 45.5487 60.2028 45.5214C60.6026 44.9382 60.7615 44.194 60.5576 43.4689L59.8578 40.9785C59.6797 40.3441 59.2472 39.7991 58.6688 39.4833C58.6115 39.4519 58.5468 39.4383 58.4874 39.4117C58.8858 38.8285 59.0447 38.0856 58.8408 37.3606L58.1177 34.7863C57.9404 34.1532 57.5079 33.6089 56.9295 33.291C56.864 33.2555 56.7918 33.2399 56.7235 33.2105C56.7706 33.141 56.8231 33.0754 56.8627 33.0018C57.1717 32.424 57.2358 31.7337 57.0387 31.1096L56.9254 30.746C55.9241 27.5557 53.6117 25.4343 49.9011 24.2754L49.738 24.2181C48.5498 23.849 47.326 23.6144 46.0866 23.4984V21.4719C46.0866 19.5573 44.5314 18 42.6208 18H38.8667H37.5761H33.822C31.9112 18 30.3563 19.5573 30.3563 21.4719V23.4985C29.1131 23.6158 27.8802 23.8532 26.6606 24.2332L26.5853 24.2611C22.8309 25.4343 20.5191 27.5557 19.5169 30.7481L19.4053 31.1055C19.2072 31.7325 19.271 32.4233 19.5779 32.997C19.6177 33.0727 19.672 33.1396 19.7197 33.2105C19.6512 33.2406 19.5775 33.2562 19.5117 33.2924C18.935 33.6089 18.5025 34.1532 18.3252 34.7856L17.6025 37.3599C17.3982 38.0851 17.5568 38.8285 17.9555 39.4118C17.8959 39.4383 17.831 39.452 17.7735 39.4834C17.196 39.7992 16.7629 40.3442 16.5852 40.9779L15.8856 43.4683C15.6814 44.1941 15.8403 44.9377 16.24 45.5215C16.18 45.5488 16.1149 45.5625 16.0572 45.5938C15.4798 45.9096 15.0463 46.4539 14.8686 47.0876L14.0907 49.8549C13.7309 51.1352 14.474 52.4906 15.7472 52.8767L19.7079 54.0772C19.9395 54.1475 20.1797 54.183 20.4214 54.183H20.4218C20.8314 54.183 21.2386 54.0793 21.5978 53.8842C22.1734 53.5719 22.6076 53.031 22.7888 52.3999L23.5824 49.6387C23.7908 48.913 23.6363 48.1687 23.24 47.5835C23.3024 47.5562 23.3696 47.5419 23.4296 47.5091C24.0054 47.1967 24.4392 46.6557 24.6203 46.0262L25.3341 43.5399C25.5421 42.8134 25.3884 42.0699 24.9928 41.4846C25.0548 41.4574 25.1217 41.4437 25.1813 41.4109C25.3025 41.3454 25.413 41.2642 25.5204 41.1797C25.6588 41.6483 25.9293 42.0549 26.2932 42.3625C25.7575 42.8147 25.4095 43.4819 25.4095 44.2362V47.683C25.4095 48.4367 25.7574 49.1045 26.2932 49.5568C25.7575 50.009 25.4095 50.6768 25.4095 51.4312V55.5362C25.4095 56.895 26.5149 58 27.8736 58H37.5765H38.8671H48.5698C49.9286 58 51.0336 56.895 51.0336 55.5362V51.4312C51.0336 50.6768 50.6857 50.009 50.1503 49.5568C50.6857 49.1045 51.0336 48.4367 51.0336 47.683V44.2362C51.0336 43.4819 50.6857 42.8147 50.1503 42.3625C50.5138 42.0549 50.7847 41.6483 50.9232 41.1797C51.031 41.2642 51.1415 41.3454 51.2621 41.4109C51.3215 41.4436 51.3891 41.4573 51.4511 41.4846C51.0554 42.0706 50.9013 42.8141 51.1093 43.5399L51.8235 46.0268C52.0043 46.6557 52.4381 47.1967 53.0137 47.5091C53.0738 47.5418 53.1413 47.5562 53.2033 47.5835C52.807 48.1687 52.6529 48.913 52.8616 49.6387L53.6542 52.4005C53.8357 53.0309 54.2695 53.5718 54.8452 53.8835C55.2047 54.0792 55.612 54.183 56.0212 54.183C56.264 54.183 56.5041 54.1475 56.736 54.0772L60.6958 52.8767C61.9689 52.4905 62.7124 51.1352 62.3522 49.8549ZM38.6937 19.1173H42.6207C43.9187 19.1173 44.9692 20.1732 44.9692 21.4719V23.4713H38.6938V19.1173H38.6937ZM22.5078 49.3303L21.7145 52.0915C21.6149 52.438 21.3813 52.73 21.0644 52.9019C20.7483 53.0738 20.3762 53.112 20.0314 53.0077L16.0713 51.8071C15.3711 51.595 14.9687 50.8609 15.1664 50.157L15.9445 47.3897C16.042 47.0418 16.2756 46.7478 16.5928 46.5746C16.9099 46.4007 17.2839 46.3618 17.6293 46.4668L21.6053 47.6721C22.3089 47.8849 22.7106 48.6237 22.5078 49.3303ZM24.2594 43.2315L23.5455 45.7178C23.4463 46.063 23.2116 46.3556 22.8955 46.5275C22.5793 46.6995 22.2073 46.7383 21.8621 46.634L17.8659 45.4219C17.1647 45.2097 16.7629 44.475 16.9611 43.7711L17.6609 41.28C17.7584 40.9322 17.9924 40.6375 18.3093 40.4643C18.6265 40.2909 18.9999 40.2515 19.3461 40.3572L23.3566 41.572C24.0602 41.7847 24.4624 42.5242 24.2594 43.2315ZM26.035 37.0501L25.297 39.6183C25.1977 39.9655 24.9633 40.2575 24.6472 40.4294C24.3311 40.6012 23.9586 40.6401 23.6141 40.535L19.5828 39.3127C18.882 39.1012 18.4799 38.3665 18.678 37.6626L19.401 35.0876C19.4986 34.7397 19.7325 34.4458 20.0494 34.2718C20.3665 34.0985 20.7403 34.059 21.0862 34.1646L25.1325 35.3904C25.8362 35.6035 26.2379 36.3428 26.035 37.0501ZM37.749 56.8827H27.8733C27.1319 56.8827 26.5268 56.2784 26.5268 55.5362V51.4312C26.5268 50.6835 27.1318 50.0847 27.8733 50.0847H37.749V56.8827ZM37.749 49.0289H27.8733C27.1319 49.0289 26.5268 48.4245 26.5268 47.6831V44.2363C26.5268 43.4894 27.1318 42.8905 27.8733 42.8905H37.749V49.0289ZM37.749 41.8346H27.8733C27.1319 41.8346 26.5268 41.2295 26.5268 40.488V36.9411C26.5268 36.2003 27.1318 35.5952 27.8733 35.5952H37.749V41.8346ZM37.749 34.5392H26.0104L21.3662 33.1334C21.0224 33.0263 20.7318 32.789 20.5654 32.4745C20.3939 32.154 20.3639 31.7801 20.4706 31.4425L20.5835 31.081C21.5146 28.1152 23.7093 26.3307 26.9184 25.328L27.0367 25.2857C28.656 24.7824 30.3467 24.5273 32.0488 24.5273H37.7489V34.5392H37.749ZM37.749 23.4713H31.4739V21.4719C31.4739 20.1732 32.5237 19.1173 33.822 19.1173H37.749V23.4713ZM49.9159 55.5362C49.9159 56.2784 49.3109 56.8827 48.5693 56.8827H38.6937V50.0847H48.5693C49.3108 50.0847 49.9159 50.6836 49.9159 51.4312V55.5362ZM49.9159 47.683C49.9159 48.4244 49.3109 49.0288 48.5693 49.0288H38.6937V42.8904H48.5693C49.3108 42.8904 49.9159 43.4893 49.9159 44.2362V47.683ZM49.9159 40.488C49.9159 41.2295 49.3109 41.8346 48.5693 41.8346H38.6937V35.5952H48.5693C49.3108 35.5952 49.9159 36.2002 49.9159 36.9411V40.488ZM38.6937 34.5392V24.5272H44.3935C46.096 24.5272 47.7863 24.7823 49.4057 25.2856L49.5243 25.3279C52.733 26.3306 54.928 28.1151 55.8591 31.0809L55.9717 31.4424C56.0781 31.78 56.0487 32.1539 55.8776 32.4744C55.7111 32.7889 55.4206 33.0262 55.0767 33.1333L50.4322 34.5391H38.6937V34.5392ZM51.7958 40.4295C51.4793 40.2575 51.2447 39.9655 51.1458 39.6184L50.4078 37.0502C50.2052 36.3429 50.6062 35.6035 51.3103 35.3907L55.3565 34.1649C55.7023 34.0592 56.0762 34.0988 56.3933 34.272C56.7098 34.4459 56.9446 34.74 57.0413 35.0879L57.7644 37.6629C57.9629 38.3668 57.5612 39.1015 56.86 39.313L52.8287 40.5353C52.4841 40.6402 52.1116 40.6013 51.7958 40.4295ZM53.5475 46.5274C53.231 46.3555 52.9963 46.063 52.8967 45.7177L52.1833 43.2314C51.98 42.5241 52.3825 41.7846 53.0856 41.5718L57.0965 40.357C57.4423 40.2513 57.8162 40.2908 58.1333 40.4641C58.4505 40.6373 58.6838 40.9321 58.782 41.2799L59.4819 43.7709C59.6797 44.4748 59.2779 45.2094 58.5767 45.4217L54.5801 46.6338C54.2351 46.7382 53.8633 46.6994 53.5475 46.5274ZM60.3714 51.8071L56.411 53.0077C56.0665 53.112 55.6948 53.0738 55.3783 52.9019C55.0617 52.73 54.8278 52.438 54.7282 52.0915L53.9349 49.3303C53.7316 48.6237 54.134 47.885 54.8374 47.6721L58.8133 46.4668C59.1585 46.3618 59.5323 46.4007 59.8501 46.5746C60.1666 46.7479 60.4006 47.0418 60.4981 47.3897L61.2757 50.157C61.4736 50.8609 61.0713 51.595 60.3714 51.8071Z" fill="black"/>
</svg>
