<svg width="76" height="76" viewBox="0 0 76 76" fill="none" xmlns="http://www.w3.org/2000/svg">
<circle cx="38" cy="38" r="38" fill="#E4E4E4"/>
<path d="M37.7373 30.2914C37.4338 30.2914 37.1882 30.5375 37.1882 30.8406C37.1882 31.1441 37.4338 31.3897 37.7373 31.3897C38.0409 31.3897 38.2864 31.1441 38.2864 30.8406C38.2864 30.5376 38.0409 30.2914 37.7373 30.2914Z" fill="black"/>
<path d="M37.7373 35.0262C37.4338 35.0262 37.1882 35.2724 37.1882 35.5759C37.1882 35.8795 37.4338 36.1244 37.7373 36.1244C38.0409 36.1244 38.2864 35.8795 38.2864 35.5759C38.2864 35.2724 38.0409 35.0262 37.7373 35.0262Z" fill="black"/>
<path d="M37.7373 39.7608C37.4338 39.7608 37.1882 40.007 37.1882 40.3106C37.1882 40.6136 37.4338 40.8591 37.7373 40.8591C38.0409 40.8591 38.2864 40.6136 38.2864 40.3106C38.2864 40.007 38.0409 39.7608 37.7373 39.7608Z" fill="black"/>
<path d="M37.7373 49.2302C37.4338 49.2302 37.1882 49.4758 37.1882 49.7793C37.1882 50.0829 37.4338 50.3284 37.7373 50.3284C38.0409 50.3284 38.2864 50.0829 38.2864 49.7793C38.2864 49.4758 38.0409 49.2302 37.7373 49.2302Z" fill="black"/>
<path d="M37.7373 44.4956C37.4338 44.4956 37.1882 44.7411 37.1882 45.0447C37.1882 45.3483 37.4338 45.5938 37.7373 45.5938C38.0409 45.5938 38.2864 45.3483 38.2864 45.0447C38.2864 44.7411 38.0409 44.4956 37.7373 44.4956Z" fill="black"/>
<path d="M55.0568 28.9375C55.0561 28.9343 55.0548 28.9318 55.0542 28.9292L55.0529 28.9235C54.5414 26.6964 53.0459 24.8202 50.9859 23.8278L45.6275 21.2475L44.5708 19.5363L44.5561 19.5153C44.2716 19.1218 43.8985 18.8112 43.4668 18.5957C42.8162 18.271 42.0586 18.1378 41.1332 18.0676C40.2065 17.9994 39.1001 18 37.7371 18C35.9189 18.0013 34.5605 17.9962 33.4693 18.1633C32.9239 18.2481 32.4399 18.3782 32.0076 18.5957C31.5758 18.8112 31.2027 19.1219 30.9182 19.5153L30.9049 19.5337L29.8468 21.2475L24.4884 23.8278C22.4285 24.8202 20.9328 26.6964 20.4214 28.9235L20.4202 28.9292C20.4195 28.9318 20.4182 28.9343 20.4176 28.9375L14 54.5835L21.8438 56.6512L25.4757 42.8221V58H35.227L37.7372 54.817L40.2468 58H49.9987V42.8221L53.6307 56.6512L61.4744 54.5835L55.0568 28.9375ZM31.9815 20.2767C32.1486 20.0516 32.3329 19.896 32.5951 19.7621C32.9891 19.5613 33.5874 19.4311 34.4375 19.3699C35.2857 19.3068 36.375 19.3055 37.7372 19.3061C39.5529 19.3048 40.8858 19.31 41.8048 19.4541C42.2646 19.5249 42.6154 19.6288 42.8795 19.7621C43.1416 19.896 43.3259 20.0517 43.493 20.2767L44.4306 21.7953L41.956 28.2742L38.4981 25.4395L41.9803 22.4313L41.9968 22.4134C42.2488 22.1474 42.3833 21.7993 42.3833 21.4446C42.3833 21.2596 42.3463 21.0715 42.2704 20.8948L42.2697 20.8922C42.0478 20.3782 41.5414 20.0427 40.9789 20.0427H34.4955C33.9331 20.0427 33.4266 20.3782 33.2047 20.8922C33.1282 21.0714 33.0912 21.2596 33.0912 21.4458C33.0906 21.7991 33.2251 22.1485 33.479 22.4151L33.4943 22.4317L36.9764 25.4394L33.5185 28.2741L31.044 21.794L31.9815 20.2767ZM37.7372 24.8023L34.1843 21.7328C34.1103 21.6525 34.0708 21.5504 34.0708 21.4458L34.1046 21.28C34.1728 21.1231 34.3259 21.0223 34.4955 21.0223H40.9789C41.1486 21.0223 41.3016 21.1231 41.3705 21.2813L41.4037 21.4446C41.4037 21.5492 41.3635 21.6525 41.2896 21.7342L37.7372 24.8023ZM20.9126 55.0555L15.5804 53.6499L16.3528 50.5625L21.7214 51.9776L20.9126 55.0555ZM53.588 51.3463L49.9879 37.6397L49.7461 37.4752L49.2692 37.1494L48.6926 37.8057V56.694H40.8807L37.7372 52.7079L37.2245 53.3584L34.5937 56.6939H26.7819V37.8048L26.5868 37.5835L26.2055 37.1492L25.6883 37.5024L25.4867 37.6395L21.8872 51.3461L16.5115 49.929L21.6901 29.2333L21.692 29.2269C22.111 27.3812 23.3501 25.8258 25.0549 25.0043L30.2634 22.4961L33.0887 29.894L37.7372 26.0829L42.3858 29.8935L45.2111 22.4962L50.4197 25.0044C52.1243 25.8259 53.3635 27.3813 53.7826 29.227L53.7844 29.234L58.963 49.9292L53.588 51.3463ZM53.7538 51.9776L59.1218 50.5625L59.8941 53.6492L54.5618 55.0548L53.7538 51.9776Z" fill="black"/>
</svg>
