<svg width="76" height="76" viewBox="0 0 76 76" fill="none" xmlns="http://www.w3.org/2000/svg">
<circle cx="38" cy="38" r="38" fill="#E4E4E4"/>
<path d="M54.7202 28.9161C52.806 25.5827 50.1743 24.1864 48.1774 23.4481C47.1877 23.079 46.3309 22.8411 45.8646 22.6295L45.8607 22.6279C45.7469 22.5777 45.6563 22.5292 45.5941 22.491L45.536 22.4513C45.536 20.4869 45.536 20.4463 45.536 20.4463C45.5361 19.0939 44.4421 18 43.0909 18H36.6563C35.3054 18 34.2114 19.0939 34.2114 20.4448C34.2114 20.4448 34.2114 20.4878 34.2114 22.4242C34.167 22.4545 34.0746 22.5094 33.9219 22.5722C33.7286 22.6541 33.4692 22.7456 33.1677 22.8379L33.1621 22.8395C32.1716 23.1521 30.7101 23.5387 29.208 24.4219C27.7005 25.3042 26.1587 26.7091 25.002 28.9606C24.177 30.563 23.7735 32.2225 23.5531 33.9322C23.3327 35.6434 23.2906 37.4105 23.1975 39.2673C23.0122 42.9922 22.6581 47.1038 20.4925 52.034L20.3031 52.4659L20 53.1557L28.002 55.3634L28.3527 54.4812C28.3759 54.423 28.3965 54.361 28.4196 54.3021V58H51.3278V48.2964C53.6795 45.0473 55.3693 41.5659 56.0041 38.1202H56.0423L56.1155 37.537C56.2667 36.7573 56.3366 35.9824 56.3366 35.2266C56.3321 32.7428 55.6256 30.4898 54.7202 28.9161ZM54.6677 37.3094L54.6662 37.319L54.6645 37.3293C53.8928 42.5761 50.2125 48.3003 45.3213 52.8891L41.9906 49.0337C43.0933 48.0623 44.8583 46.8713 46.4247 44.7464C48.1352 42.4273 49.5888 38.9944 49.7717 33.5327L48.957 33.5057C48.7741 38.8384 47.3779 42.0756 45.7684 44.2627C44.155 46.4538 42.3176 47.5866 41.1402 48.7037L40.8602 48.9709L45.2584 54.0627L45.568 53.7787C47.1297 52.3402 48.5768 50.7873 49.8609 49.1659V56.5337H29.8859V46.5541H29.8342C30.3052 43.9844 30.6338 41.2866 30.8302 38.6413L30.0172 38.5808C29.6234 43.9095 28.6926 49.4587 27.1141 53.5965L22.0113 52.1891C24.1109 47.2271 24.4831 42.9947 24.6622 39.3398C24.8427 35.5712 24.857 32.4295 26.305 29.633C27.8841 26.5859 30.0864 25.4402 31.9655 24.7633C32.9059 24.4267 33.7579 24.2206 34.4238 23.9518C34.7572 23.8157 35.0516 23.6645 35.2878 23.4362C35.5248 23.2119 35.6833 22.8794 35.6777 22.5213C35.6777 20.4847 35.6777 20.4465 35.6777 20.4465C35.6784 19.9048 36.116 19.4672 36.6563 19.4663H43.0909C43.6311 19.4671 44.0686 19.9047 44.0695 20.4449C44.0695 20.4449 44.0695 20.4847 44.0695 22.5213C44.0647 22.873 44.2107 23.2023 44.4374 23.433C44.8359 23.8372 45.396 24.0377 46.0668 24.2724C48.0796 24.9638 51.1848 25.7474 53.4521 29.6498C54.2223 30.9791 54.8714 33.031 54.8699 35.2268C54.8698 35.9116 54.8077 36.6109 54.6677 37.3094Z" fill="black"/>
</svg>
