<svg width="76" height="76" viewBox="0 0 76 76" fill="none" xmlns="http://www.w3.org/2000/svg">
<circle cx="38" cy="38" r="38" fill="#E4E4E4"/>
<path d="M57.4083 39.2463C55.3509 32.2422 54.6529 29.8685 54.3995 29.0242L54.3988 29.015L54.3445 28.8158C53.2739 24.9613 50.4806 20.1728 43.2544 19.2558L41.2342 19L41.1744 21.3497C41.1224 23.3887 39.7245 24.988 37.9914 24.9902C36.2602 24.9902 34.8598 23.3928 34.8061 21.354L34.7438 19.0042L32.7243 19.2635C25.4992 20.1889 22.7109 24.9809 21.6433 28.8369L21.5902 29.0305L21.5883 29.0454C21.3355 29.891 20.6399 32.2676 18.5898 39.271L18 41.288L19.7319 42.0085L26.2112 44.7072L26.5789 44.8599V55.854V58.026L28.4562 58.0245L47.5609 58.0118L49.4375 58.0104L49.4357 55.8394L49.4259 44.845L49.793 44.6918L56.2693 41.9852L58 41.2618L57.4083 39.2463ZM49.1554 42.6507L47.5438 37.829L47.5597 55.8415L28.4549 55.8542V37.8418L26.8463 42.6649L20.367 39.9669L23.4296 29.5046L23.4302 29.499C24.513 25.5857 27.1536 22.1607 32.9306 21.4204C33.0149 24.6066 35.2464 27.1605 37.9932 27.1605C40.7401 27.157 42.9685 24.6002 43.0498 21.4133C48.8274 22.1467 51.4718 25.5682 52.5582 29.4799L52.5588 29.4855L55.6318 39.9443L49.1554 42.6507Z" fill="black"/>
</svg>
