<svg width="76" height="76" viewBox="0 0 76 76" fill="none" xmlns="http://www.w3.org/2000/svg">
<circle cx="38" cy="38" r="38" fill="#E4E4E4"/>
<path d="M43.09 18H41.8271H37.3153H36.1728H27V21.7899V23.3535V58H38.5587L39.6314 45.5014L40.704 58H52.2628V23.3535V21.7899V18H43.09ZM37.3758 19.203H41.887V22.1505H37.3758V19.203ZM28.203 19.203H36.1123V22.1505H28.203V19.203ZM28.203 22.9929H32.2859C32.2513 24.7909 31.6862 26.4462 30.8303 27.6427C30.3886 28.2613 29.8723 28.757 29.3225 29.093C28.9601 29.3145 28.5848 29.4606 28.203 29.5394V22.9929ZM37.4545 56.797H28.203V30.4005C28.7504 30.3125 29.2762 30.1092 29.762 29.8114C30.7558 29.2017 31.5928 28.2131 32.1885 26.9995C32.7595 25.8341 33.0977 24.4555 33.1248 22.9929H37.7065V35.8134H39.2555L37.4545 56.797ZM38.5488 34.9711V22.9929H40.714V34.9711H38.5488ZM51.0598 56.797H41.8082L40.0073 35.8134H41.5563V22.9929H46.1344C46.1714 24.9648 46.7817 26.7787 47.7473 28.1321C48.2455 28.8293 48.8381 29.4055 49.5008 29.8114C49.9866 30.1092 50.5123 30.3125 51.0598 30.4005V56.797ZM51.0598 29.5395C50.6779 29.4607 50.302 29.3145 49.9402 29.093C49.1155 28.5897 48.3666 27.7245 47.8309 26.6295C47.3174 25.5822 47.0062 24.3258 46.9798 22.993H51.0598V29.5395H51.0598ZM51.0598 22.1505H43.0301V19.203H51.0598V22.1505Z" fill="black"/>
</svg>
