<svg width="76" height="76" viewBox="0 0 76 76" fill="none" xmlns="http://www.w3.org/2000/svg">
<circle cx="38" cy="38" r="38" fill="#E4E4E4"/>
<path d="M25.8611 50.1845H21.1116C20.6801 50.1845 20.3303 50.5343 20.3303 50.9658C20.3303 51.3972 20.6801 51.747 21.1116 51.747H25.861C26.2925 51.747 26.6423 51.3972 26.6423 50.9658C26.6423 50.5343 26.2925 50.1845 25.8611 50.1845Z" fill="black"/>
<path d="M30.1001 50.6672C29.9723 50.3551 29.6447 50.1576 29.3089 50.1879C28.9859 50.2172 28.7087 50.4508 28.6243 50.7636C28.5406 51.0743 28.6634 51.4134 28.9242 51.6009C29.1882 51.7907 29.556 51.7932 29.8232 51.6083C30.1218 51.4016 30.2399 51.0027 30.1001 50.6672V50.6672Z" fill="black"/>
<path d="M29.393 46.271H19.752C19.3205 46.271 18.9707 46.6208 18.9707 47.0522C18.9707 47.4837 19.3205 47.8335 19.752 47.8335H29.393C29.8245 47.8335 30.1742 47.4837 30.1742 47.0522C30.1742 46.6208 29.8245 46.271 29.393 46.271Z" fill="black"/>
<path d="M26.3893 43.1387C26.3893 42.7072 26.0395 42.3574 25.608 42.3574H18.7812C18.3498 42.3574 18 42.7072 18 43.1387C18 43.5702 18.3498 43.9199 18.7812 43.9199H25.608C26.0395 43.9199 26.3893 43.5702 26.3893 43.1387Z" fill="black"/>
<path d="M57.0658 46.1743C56.9337 41.7452 53.2896 38.1829 48.8292 38.1829H44.8651L42.6102 24.6411C42.492 23.8268 42.0591 23.1143 41.3904 22.6339C40.7192 22.1517 39.9019 21.9694 39.0895 22.1205C37.4331 22.4285 36.9772 22.4945 36.8529 22.5063C36.6228 22.5284 36.4142 22.6512 36.2834 22.8418C36.1525 23.0323 36.1128 23.2711 36.1749 23.4938L36.369 24.1902C34.95 24.0203 33.6506 23.2478 32.8256 22.0389L32.3482 21.3405C32.2227 21.1567 32.0246 21.0352 31.8039 21.0066C31.5833 20.9777 31.3608 21.0447 31.1924 21.1902L27.4565 24.4188C27.0379 24.7331 26.6334 25.1427 26.2539 25.6366C26.2537 25.6369 26.2535 25.6372 26.2533 25.6374C25.1935 27.0136 24.2766 29.0756 23.7495 31.2432C23.1711 31.297 22.6121 31.5651 22.2042 32.0377L21.2996 33.0859C20.8928 33.5572 20.6945 34.1586 20.741 34.7794C20.7876 35.4002 21.0734 35.9652 21.5459 36.3706L36.9342 49.5731C37.1951 49.7925 37.4671 49.9965 37.7485 50.1845H32.9247C32.4932 50.1845 32.1435 50.5343 32.1435 50.9658C32.1435 51.3973 32.4932 51.747 32.9247 51.747H55.6743C56.9567 51.747 58 50.7037 58 49.4213V48.0367C58 47.2757 57.6326 46.5988 57.0658 46.1743V46.1743ZM41.9161 29.9855H39.6062L39.0313 27.9227H41.5726L41.9161 29.9855ZM42.1763 31.548L42.5368 33.7133H40.6452L40.0417 31.548H42.1763ZM42.7971 35.2758L43.3499 38.5958C43.1091 38.6668 42.8504 38.6636 42.5979 38.582C42.1775 38.4461 41.8705 38.1234 41.7537 37.6906L41.0807 35.2758H42.7971ZM39.3752 23.6566C39.765 23.5841 40.1568 23.6716 40.4788 23.9029C40.8008 24.1342 41.0089 24.4779 41.0646 24.8706C41.0655 24.8768 41.0664 24.883 41.0675 24.8891L41.3125 26.3602H38.5958L37.9159 23.9207C38.2557 23.8618 38.7245 23.7777 39.3752 23.6566V23.6566ZM28.457 25.6192L31.552 22.9445C32.7566 24.6929 34.7207 25.7388 36.8139 25.7866L36.9738 26.3601H36.9275C36.496 26.3601 36.1462 26.7098 36.1462 27.1413C36.1462 27.5728 36.496 27.9226 36.9275 27.9226H37.4092L37.9842 29.9854H37.4764C37.045 29.9854 36.6952 30.3352 36.6952 30.7666C36.6952 31.1981 37.045 31.5479 37.4764 31.5479H38.4197L39.0232 33.7132H38.1014C37.67 33.7132 37.3202 34.063 37.3202 34.4945C37.3202 34.9259 37.67 35.2757 38.1014 35.2757H39.4587L40.2469 38.1036C40.4985 39.0367 41.1978 39.7713 42.1173 40.0686C42.2466 40.1104 42.3773 40.1426 42.5087 40.1654L41.7475 41.2641C41.5018 41.6188 41.5902 42.1056 41.9448 42.3513C42.0805 42.4452 42.2356 42.4904 42.389 42.4904C42.6366 42.4904 42.8802 42.373 43.0319 42.154L44.7006 39.7453H48.8291C52.2707 39.7453 55.1125 42.3623 55.4692 45.7109H42.896C42.1428 45.7109 41.4097 45.4454 40.8311 44.9632L29.7242 35.4341C31.0423 34.3813 31.8282 32.7481 31.8282 30.9618C31.8282 29.5916 31.3337 28.2681 30.4358 27.2348C29.8567 26.5684 29.135 26.0506 28.3334 25.7154C28.3593 25.695 28.3853 25.6752 28.4112 25.6559C28.4269 25.6443 28.4422 25.632 28.457 25.6192V25.6192ZM27.2106 26.9795C28.9809 27.4556 30.2657 29.0925 30.2657 30.9618C30.2657 32.3722 29.6025 33.6467 28.508 34.3907L25.4792 31.7922C25.4099 31.7327 25.3378 31.678 25.2638 31.628C25.691 29.8595 26.3934 28.1832 27.2106 26.9795V26.9795ZM56.4375 49.4213C56.4375 49.8421 56.0951 50.1845 55.6743 50.1845H42.896C41.0856 50.1845 39.3255 49.5427 37.9459 48.3823L22.5633 35.1848C22.4082 35.0517 22.3144 34.8663 22.2992 34.6626C22.2839 34.4588 22.349 34.2614 22.4825 34.1068L23.3871 33.0586C23.5377 32.8841 23.751 32.7945 23.9655 32.7945C24.1415 32.7945 24.3183 32.8548 24.4619 32.978L39.8178 46.1526C39.8203 46.1548 39.8228 46.157 39.8254 46.1591C40.6851 46.8777 41.7756 47.2734 42.896 47.2734H55.6743C56.0951 47.2734 56.4375 47.6159 56.4375 48.0367V49.4213Z" fill="black"/>
</svg>
