<svg width="150" height="150" viewBox="0 0 150 150" fill="none" xmlns="http://www.w3.org/2000/svg">
<mask id="mask0_45280_263" style="mask-type:luminance" maskUnits="userSpaceOnUse" x="124" y="44" width="3" height="22">
<path d="M124.4 44.5498H126.4V65.9951H124.4V44.5498Z" fill="white"/>
</mask>
<g mask="url(#mask0_45280_263)">
<path d="M124.588 85.9746H126.338V44.5527H124.588V85.9746Z" fill="black"/>
</g>
<mask id="mask1_45280_263" style="mask-type:luminance" maskUnits="userSpaceOnUse" x="119" y="48" width="3" height="18">
<path d="M119.2 48H121.2V65.9953H119.2V48Z" fill="white"/>
</mask>
<g mask="url(#mask1_45280_263)">
<path d="M119.439 82.2422H121.186V48.2891H119.439V82.2422Z" fill="black"/>
</g>
<mask id="mask2_45280_263" style="mask-type:luminance" maskUnits="userSpaceOnUse" x="114" y="52" width="3" height="14">
<path d="M114 52H116.4V65.9953H114V52Z" fill="white"/>
</mask>
<g mask="url(#mask2_45280_263)">
<path d="M114.294 78.5063H116.041V52.0234H114.294V78.5063Z" fill="black"/>
</g>
<mask id="mask3_45280_263" style="mask-type:luminance" maskUnits="userSpaceOnUse" x="108" y="55" width="4" height="11">
<path d="M108.8 55.6001H111.2V65.9954H108.8V55.6001Z" fill="white"/>
</mask>
<g mask="url(#mask3_45280_263)">
<path d="M109.148 74.7702H110.895V55.7593H109.148V74.7702Z" fill="black"/>
</g>
<mask id="mask4_45280_263" style="mask-type:luminance" maskUnits="userSpaceOnUse" x="103" y="59" width="3" height="7">
<path d="M103.998 59.2002H106V65.9955H103.998V59.2002Z" fill="white"/>
</mask>
<g mask="url(#mask4_45280_263)">
<path d="M103.998 71.0348H105.745V59.4941H103.998V71.0348Z" fill="black"/>
</g>
<mask id="mask5_45280_263" style="mask-type:luminance" maskUnits="userSpaceOnUse" x="129" y="48" width="3" height="18">
<path d="M129.6 48H131.6V65.9953H129.6V48Z" fill="white"/>
</mask>
<g mask="url(#mask5_45280_263)">
<path d="M129.736 82.2422H131.483V48.2891H129.736V82.2422Z" fill="black"/>
</g>
<mask id="mask6_45280_263" style="mask-type:luminance" maskUnits="userSpaceOnUse" x="134" y="52" width="3" height="14">
<path d="M134.8 52H136.8V65.9953H134.8V52Z" fill="white"/>
</mask>
<g mask="url(#mask6_45280_263)">
<path d="M134.881 78.5063H136.628V52.0234H134.881V78.5063Z" fill="black"/>
</g>
<mask id="mask7_45280_263" style="mask-type:luminance" maskUnits="userSpaceOnUse" x="140" y="55" width="2" height="11">
<path d="M140 55.6001H142V65.9954H140V55.6001Z" fill="white"/>
</mask>
<g mask="url(#mask7_45280_263)">
<path d="M140.028 74.7702H141.777V55.7593H140.028V74.7702Z" fill="black"/>
</g>
<mask id="mask8_45280_263" style="mask-type:luminance" maskUnits="userSpaceOnUse" x="144" y="59" width="3" height="7">
<path d="M144.8 59.3828H146.898V65.9953H144.8V59.3828Z" fill="white"/>
</mask>
<g mask="url(#mask8_45280_263)">
<path d="M145.173 59.4937V71.0343H146.923V59.4937H145.173Z" fill="black"/>
</g>
<path d="M4.92755 80.6017V72.5938C4.92755 72.5001 4.83224 72.3813 4.66661 72.3813H1.56349C1.4213 72.3813 1.30255 72.5001 1.30255 72.5938V80.6017H4.92755ZM15.4697 72.3813H12.3651C12.2229 72.3813 12.1057 72.5001 12.1057 72.5938V84.2501H4.92755V84.2267H1.30255V91.1204C1.30255 91.2142 1.4213 91.3329 1.56349 91.3329H4.66661C4.83224 91.3329 4.92755 91.2142 4.92755 91.1204V87.7798H12.1057V91.1204C12.1057 91.2142 12.2229 91.3329 12.3651 91.3329H15.4697C15.6354 91.3329 15.7291 91.2142 15.7291 91.1204V72.5938C15.7291 72.5001 15.6354 72.3813 15.4697 72.3813Z" fill="black"/>
<path d="M25.3684 88.0876H23.4731V72.3813H19.8481V88.0876H17.9059C17.7637 88.0876 17.6449 88.1829 17.6449 88.3001V91.1204C17.6449 91.2142 17.7637 91.3329 17.9059 91.3329H25.3684C25.534 91.3329 25.6277 91.2142 25.6277 91.1204V88.3001C25.6277 88.1829 25.534 88.0876 25.3684 88.0876Z" fill="black"/>
<path d="M38.7512 78.0905C38.7512 77.9952 38.6793 77.8765 38.5371 77.8765H30.0559C29.8903 77.8765 29.7965 77.9952 29.7965 78.0905V80.6483C29.7965 80.7437 29.8903 80.8374 30.0559 80.8374H38.5371C38.6793 80.8374 38.7512 80.7437 38.7512 80.6483V78.0905Z" fill="black"/>
<path d="M53.3396 80.1032H45.9021V75.8157H51.2787V72.3813H42.5381C42.3959 72.3813 42.2771 72.5001 42.2771 72.5938V91.1204C42.2771 91.2142 42.3959 91.3329 42.5381 91.3329H45.9021V83.5392H53.3396C53.4818 83.5392 53.6006 83.4204 53.6006 83.3251V80.3173C53.6006 80.1985 53.4818 80.1032 53.3396 80.1032Z" fill="black"/>
<path d="M70.2277 91.0483L63.0261 72.5233C62.9558 72.3327 62.6246 72.3327 62.5527 72.5233L55.3746 91.0483C55.3043 91.1905 55.398 91.3327 55.6121 91.3327H58.8574C58.9527 91.3327 59.0699 91.2858 59.0949 91.1905L62.7902 80.6249L66.5324 91.1905C66.5558 91.2858 66.6746 91.3327 66.7465 91.3327H70.0152C70.1808 91.3327 70.2996 91.1905 70.2277 91.0483Z" fill="black"/>
<path d="M80.861 80.8142C79.511 80.1751 78.1844 80.1751 78.0656 80.1751C76.8578 80.1751 75.6969 79.4642 75.6969 78.0907C75.6969 76.5735 76.7625 75.7923 78.0656 75.7923C79.2985 75.7923 80.3406 76.4313 80.3875 77.7829C80.3875 77.8532 80.5063 77.972 80.6485 77.972H83.6094C83.775 77.972 83.8938 77.8532 83.8703 77.7829C83.8219 74.561 81.311 72.3813 78.0656 72.3813C75.0344 72.3813 72.1672 74.536 72.1672 78.0907C72.1672 80.2938 73.2813 81.9751 75.2469 82.8751C76.6203 83.5157 77.9 83.5157 78.0656 83.5157C79.1313 83.5626 80.4344 84.4157 80.4344 85.8126C80.4344 87.0688 79.3219 87.922 78.0656 87.922C78.0656 87.922 78.0656 87.922 78.0422 87.922V91.3329C78.0656 91.3329 78.0656 91.3329 78.0656 91.3329C81.0985 91.3329 83.9406 89.3673 83.9406 85.8126C83.9406 83.586 82.8516 81.7392 80.861 80.8142Z" fill="black"/>
<path d="M89.3399 80.6017V72.5938C89.3399 72.5001 89.2446 72.3813 89.079 72.3813H85.9758C85.8337 72.3813 85.7149 72.5001 85.7149 72.5938V80.6017H89.3399ZM99.8821 72.3813H96.7774C96.6352 72.3813 96.518 72.5001 96.518 72.5938V84.2501H89.3399V84.2267H85.7149V91.1204C85.7149 91.2142 85.8337 91.3329 85.9758 91.3329H89.079C89.2446 91.3329 89.3399 91.2142 89.3399 91.1204V87.7798H96.518V91.1204C96.518 91.2142 96.6352 91.3329 96.7774 91.3329H99.8821C100.048 91.3329 100.141 91.2142 100.141 91.1204V72.5938C100.141 72.5001 100.048 72.3813 99.8821 72.3813Z" fill="black"/>
<path d="M109.781 88.0876H107.885V72.3813H104.26V88.0876H102.318C102.176 88.0876 102.057 88.1829 102.057 88.3001V91.1204C102.057 91.2142 102.176 91.3329 102.318 91.3329H109.781C109.946 91.3329 110.04 91.2142 110.04 91.1204V88.3001C110.04 88.1829 109.946 88.0876 109.781 88.0876Z" fill="black"/>
<path d="M122.523 81.9048C122.523 80.9095 121.742 80.1032 120.746 80.1032C119.751 80.1032 118.97 80.9095 118.97 81.9048C118.97 82.8751 119.751 83.6813 120.746 83.6813C121.742 83.6813 122.523 82.8751 122.523 81.9048ZM129.867 81.8329C129.867 77.1188 126.812 72.3813 120.77 72.3813C114.635 72.3813 111.626 77.1188 111.626 81.8329C111.626 86.572 114.635 91.3329 120.77 91.3329C126.812 91.3329 129.867 86.572 129.867 81.8329ZM126.314 81.9048C126.314 84.961 124.442 88.0157 120.77 88.0157C117.051 88.0157 115.203 84.961 115.203 81.9048C115.203 78.8017 117.051 75.722 120.77 75.722C124.442 75.722 126.314 78.8017 126.314 81.9048Z" fill="black"/>
<path d="M147.63 72.3813H144.574C144.408 72.3813 144.29 72.5001 144.29 72.5938V84.936L135.549 72.4517C135.524 72.4048 135.382 72.3813 135.335 72.3813H132.185C132.066 72.3813 131.947 72.5001 131.947 72.5938V86.7845H135.572V78.7767L144.29 91.2626C144.313 91.3095 144.455 91.3329 144.504 91.3329H147.63C147.796 91.3329 147.891 91.2142 147.891 91.1204V72.5938C147.891 72.5001 147.796 72.3813 147.63 72.3813Z" fill="black"/>
<path d="M47.5354 97.8633H48.8042V102.313H51.5542V103.345H47.5354V97.8633Z" fill="black"/>
<path d="M53.9587 97.8633H55.2275V103.345H53.9587V97.8633Z" fill="black"/>
<path d="M59.489 98.882V100.332H62.0265V101.345H59.489V103.345H58.2202V97.8633H62.364V98.882H59.489Z" fill="black"/>
<path d="M69.1615 102.326V103.345H64.9177V97.8633H69.0615V98.882H66.1802V100.07H68.724V101.057H66.1802V102.326H69.1615Z" fill="black"/>
<path d="M73.6659 103.438C73.2315 103.438 72.8128 103.379 72.4096 103.263C72.0049 103.148 71.6799 102.995 71.4346 102.807L71.8659 101.851C72.0987 102.023 72.3784 102.16 72.7034 102.263C73.0284 102.368 73.3503 102.42 73.6721 102.42C74.0346 102.42 74.3003 102.368 74.4721 102.263C74.6471 102.155 74.7346 102.012 74.7346 101.832C74.7346 101.704 74.6815 101.595 74.5784 101.507C74.4784 101.42 74.3471 101.351 74.1846 101.301C74.0253 101.248 73.8112 101.188 73.5409 101.126C73.1237 101.03 72.7815 100.932 72.5159 100.832C72.2487 100.732 72.019 100.574 71.8284 100.357C71.6409 100.137 71.5471 99.843 71.5471 99.4758C71.5471 99.1602 71.6315 98.8727 71.8034 98.6133C71.9737 98.3555 72.2315 98.1508 72.5784 98.0008C72.9284 97.8477 73.3534 97.7695 73.8534 97.7695C74.2034 97.7695 74.544 97.8117 74.8784 97.8945C75.2159 97.9789 75.5096 98.0992 75.7596 98.257L75.3659 99.2195C74.8612 98.932 74.3549 98.7883 73.8471 98.7883C73.4924 98.7883 73.2299 98.8477 73.0596 98.9633C72.8878 99.0758 72.8034 99.2258 72.8034 99.4133C72.8034 99.6008 72.9003 99.7414 73.0971 99.832C73.2924 99.9242 73.5924 100.013 73.9971 100.101C74.4128 100.201 74.7549 100.301 75.0221 100.401C75.2878 100.501 75.5159 100.657 75.7034 100.87C75.894 101.082 75.9909 101.373 75.9909 101.738C75.9909 102.051 75.9034 102.337 75.7284 102.595C75.5534 102.854 75.2909 103.06 74.9409 103.213C74.5909 103.363 74.1659 103.438 73.6659 103.438Z" fill="black"/>
<path d="M79.693 98.8945H77.9368V97.8633H82.7118V98.8945H80.9618V103.345H79.693V98.8945Z" fill="black"/>
<path d="M87.7198 101.401V103.345H86.451V101.388L84.326 97.8633H85.676L87.1386 100.301L88.6073 97.8633H89.8511L87.7198 101.401Z" fill="black"/>
<path d="M92.0758 97.8633H93.3446V102.313H96.0946V103.345H92.0758V97.8633Z" fill="black"/>
<path d="M102.743 102.326V103.345H98.4991V97.8633H102.643V98.882H99.7616V100.07H102.305V101.057H99.7616V102.326H102.743Z" fill="black"/>
</svg>
