<svg width="125" height="50" viewBox="0 0 125 50" fill="none" xmlns="http://www.w3.org/2000/svg">
<mask id="mask0_45280_386" style="mask-type:luminance" maskUnits="userSpaceOnUse" x="104" y="0" width="3" height="19">
<path d="M104.518 0H106.216V18.2085H104.518V0Z" fill="white"/>
</mask>
<g mask="url(#mask0_45280_386)">
<path d="M104.677 35.1725H106.163V0.00265503H104.677V35.1725Z" fill="black"/>
</g>
<mask id="mask1_45280_386" style="mask-type:luminance" maskUnits="userSpaceOnUse" x="100" y="2" width="2" height="17">
<path d="M100.103 2.92928H101.801V18.2085H100.103V2.92928Z" fill="white"/>
</mask>
<g mask="url(#mask1_45280_386)">
<path d="M100.306 32.0032H101.789V3.17473H100.306V32.0032Z" fill="black"/>
</g>
<mask id="mask2_45280_386" style="mask-type:luminance" maskUnits="userSpaceOnUse" x="95" y="6" width="3" height="13">
<path d="M95.6875 6.32555H97.7253V18.2085H95.6875V6.32555Z" fill="white"/>
</mask>
<g mask="url(#mask2_45280_386)">
<path d="M95.9369 28.8311H97.4201V6.34543H95.9369V28.8311Z" fill="black"/>
</g>
<mask id="mask3_45280_386" style="mask-type:luminance" maskUnits="userSpaceOnUse" x="91" y="9" width="3" height="10">
<path d="M91.2723 9.38219H93.3101V18.2085H91.2723V9.38219Z" fill="white"/>
</mask>
<g mask="url(#mask3_45280_386)">
<path d="M91.5682 25.659H93.0514V9.51749H91.5682V25.659Z" fill="black"/>
</g>
<mask id="mask4_45280_386" style="mask-type:luminance" maskUnits="userSpaceOnUse" x="87" y="12" width="2" height="7">
<path d="M87.1956 12.4388H88.895V18.2085H87.1956V12.4388Z" fill="white"/>
</mask>
<g mask="url(#mask4_45280_386)">
<path d="M87.1956 22.4869H88.6788V12.6882H87.1956V22.4869Z" fill="black"/>
</g>
<mask id="mask5_45280_386" style="mask-type:luminance" maskUnits="userSpaceOnUse" x="108" y="2" width="3" height="17">
<path d="M108.933 2.92928H110.631V18.2085H108.933V2.92928Z" fill="white"/>
</mask>
<g mask="url(#mask5_45280_386)">
<path d="M109.048 32.0032H110.532V3.17473H109.048V32.0032Z" fill="black"/>
</g>
<mask id="mask6_45280_386" style="mask-type:luminance" maskUnits="userSpaceOnUse" x="113" y="6" width="3" height="13">
<path d="M113.348 6.32555H115.046V18.2085H113.348V6.32555Z" fill="white"/>
</mask>
<g mask="url(#mask6_45280_386)">
<path d="M113.417 28.8311H114.9V6.34543H113.417V28.8311Z" fill="black"/>
</g>
<mask id="mask7_45280_386" style="mask-type:luminance" maskUnits="userSpaceOnUse" x="117" y="9" width="3" height="10">
<path d="M117.763 9.38219H119.461V18.2085H117.763V9.38219Z" fill="white"/>
</mask>
<g mask="url(#mask7_45280_386)">
<path d="M117.787 25.659H119.272V9.51749H117.787V25.659Z" fill="black"/>
</g>
<mask id="mask8_45280_386" style="mask-type:luminance" maskUnits="userSpaceOnUse" x="121" y="12" width="3" height="7">
<path d="M121.839 12.594H123.62V18.2085H121.839V12.594Z" fill="white"/>
</mask>
<g mask="url(#mask8_45280_386)">
<path d="M122.156 12.6882V22.4869H123.642V12.6882H122.156Z" fill="black"/>
</g>
<path d="M3.07786 30.61V23.8109C3.07786 23.7313 2.99694 23.6304 2.85631 23.6304H0.221553C0.100827 23.6304 0 23.7313 0 23.8109V30.61H3.07786ZM12.0289 23.6304H9.39279C9.27206 23.6304 9.17256 23.7313 9.17256 23.8109V33.7078H3.07786V33.6879H0V39.5411C0 39.6207 0.100827 39.7215 0.221553 39.7215H2.85631C2.99694 39.7215 3.07786 39.6207 3.07786 39.5411V36.7047H9.17256V39.5411C9.17256 39.6207 9.27206 39.7215 9.39279 39.7215H12.0289C12.1695 39.7215 12.2491 39.6207 12.2491 39.5411V23.8109C12.2491 23.7313 12.1695 23.6304 12.0289 23.6304Z" fill="black"/>
<path d="M20.4334 36.9661H18.8242V23.6304H15.7463V36.9661H14.0973C13.9766 36.9661 13.8757 37.047 13.8757 37.1465V39.5411C13.8757 39.6207 13.9766 39.7215 14.0973 39.7215H20.4334C20.5741 39.7215 20.6537 39.6207 20.6537 39.5411V37.1465C20.6537 37.047 20.5741 36.9661 20.4334 36.9661Z" fill="black"/>
<path d="M31.7964 28.4781C31.7964 28.3971 31.7353 28.2963 31.6146 28.2963H24.4135C24.2728 28.2963 24.1932 28.3971 24.1932 28.4781V30.6498C24.1932 30.7307 24.2728 30.8103 24.4135 30.8103H31.6146C31.7353 30.8103 31.7964 30.7307 31.7964 30.6498V28.4781Z" fill="black"/>
<path d="M44.1829 30.1868H37.868V26.5464H42.4331V23.6304H35.0117C34.891 23.6304 34.7902 23.7313 34.7902 23.8109V39.5411C34.7902 39.6207 34.891 39.7215 35.0117 39.7215H37.868V33.1041H44.1829C44.3037 33.1041 44.4045 33.0033 44.4045 32.9224V30.3686C44.4045 30.2677 44.3037 30.1868 44.1829 30.1868Z" fill="black"/>
<path d="M58.522 39.4801L52.4074 23.7512C52.3477 23.5893 52.0664 23.5893 52.0054 23.7512L45.9107 39.4801C45.851 39.6008 45.9306 39.7215 46.1123 39.7215H48.8678C48.9487 39.7215 49.0482 39.6817 49.0695 39.6008L52.207 30.6299L55.3844 39.6008C55.4043 39.6817 55.5051 39.7215 55.5661 39.7215H58.3415C58.4822 39.7215 58.583 39.6008 58.522 39.4801Z" fill="black"/>
<path d="M67.5503 30.7904C66.404 30.2478 65.2777 30.2478 65.1769 30.2478C64.1513 30.2478 63.1656 29.6442 63.1656 28.4781C63.1656 27.1899 64.0704 26.5265 65.1769 26.5265C66.2236 26.5265 67.1085 27.0691 67.1483 28.2167C67.1483 28.2764 67.2491 28.3772 67.3698 28.3772H69.8839C70.0245 28.3772 70.1253 28.2764 70.1054 28.2167C70.0643 25.4811 67.9323 23.6304 65.1769 23.6304C62.6031 23.6304 60.1687 25.4599 60.1687 28.4781C60.1687 30.3487 61.1146 31.7762 62.7836 32.5403C63.9497 33.0842 65.0362 33.0842 65.1769 33.0842C66.0816 33.124 67.1881 33.8484 67.1881 35.0344C67.1881 36.1011 66.2435 36.8254 65.1769 36.8254C65.1769 36.8254 65.1769 36.8254 65.157 36.8254V39.7215C65.1769 39.7215 65.1769 39.7215 65.1769 39.7215C67.7519 39.7215 70.1651 38.0526 70.1651 35.0344C70.1651 33.1439 69.2404 31.5758 67.5503 30.7904Z" fill="black"/>
<path d="M74.7495 30.61V23.8109C74.7495 23.7313 74.6686 23.6304 74.5279 23.6304H71.8932C71.7725 23.6304 71.6716 23.7313 71.6716 23.8109V30.61H74.7495ZM83.7005 23.6304H81.0644C80.9437 23.6304 80.8442 23.7313 80.8442 23.8109V33.7078H74.7495V33.6879H71.6716V39.5411C71.6716 39.6207 71.7725 39.7215 71.8932 39.7215H74.5279C74.6686 39.7215 74.7495 39.6207 74.7495 39.5411V36.7047H80.8442V39.5411C80.8442 39.6207 80.9437 39.7215 81.0644 39.7215H83.7005C83.8411 39.7215 83.9207 39.6207 83.9207 39.5411V23.8109C83.9207 23.7313 83.8411 23.6304 83.7005 23.6304Z" fill="black"/>
<path d="M92.1051 36.9661H90.4958V23.6304H87.418V36.9661H85.7689C85.6482 36.9661 85.5474 37.047 85.5474 37.1465V39.5411C85.5474 39.6207 85.6482 39.7215 85.7689 39.7215H92.1051C92.2457 39.7215 92.3253 39.6207 92.3253 39.5411V37.1465C92.3253 37.047 92.2457 36.9661 92.1051 36.9661Z" fill="black"/>
<path d="M102.924 31.7165C102.924 30.8714 102.261 30.1868 101.416 30.1868C100.571 30.1868 99.9072 30.8714 99.9072 31.7165C99.9072 32.5403 100.571 33.2249 101.416 33.2249C102.261 33.2249 102.924 32.5403 102.924 31.7165ZM109.159 31.6554C109.159 27.6529 106.566 23.6304 101.436 23.6304C96.227 23.6304 93.6719 27.6529 93.6719 31.6554C93.6719 35.6792 96.227 39.7215 101.436 39.7215C106.566 39.7215 109.159 35.6792 109.159 31.6554ZM106.143 31.7165C106.143 34.3114 104.553 36.905 101.436 36.905C98.2781 36.905 96.7086 34.3114 96.7086 31.7165C96.7086 29.0817 98.2781 26.4668 101.436 26.4668C104.553 26.4668 106.143 29.0817 106.143 31.7165Z" fill="black"/>
<path d="M124.242 23.6304H121.647C121.506 23.6304 121.405 23.7313 121.405 23.8109V34.2902L113.984 23.6901C113.963 23.6503 113.842 23.6304 113.802 23.6304H111.128C111.027 23.6304 110.926 23.7313 110.926 23.8109V35.8596H114.004V29.0605L121.405 39.6618C121.425 39.7016 121.546 39.7215 121.587 39.7215H124.242C124.382 39.7215 124.463 39.6207 124.463 39.5411V23.8109C124.463 23.7313 124.382 23.6304 124.242 23.6304Z" fill="black"/>
<path d="M39.2548 45.2665H40.332V49.0448H42.6669V49.9204H39.2548V45.2665Z" fill="black"/>
<path d="M44.7085 45.2665H45.7857V49.9204H44.7085V45.2665Z" fill="black"/>
<path d="M49.4042 46.1314V47.3626H51.5587V48.2223H49.4042V49.9204H48.3269V45.2665H51.8452V46.1314H49.4042Z" fill="black"/>
<path d="M57.6166 49.0554V49.9204H54.0134V45.2665H57.5317V46.1314H55.0854V47.1397H57.2452V47.9782H55.0854V49.0554H57.6166Z" fill="black"/>
<path d="M61.4412 50C61.0724 50 60.7169 49.9496 60.3746 49.8514C60.031 49.7532 59.755 49.6232 59.5468 49.464L59.9129 48.6521C60.1106 48.798 60.3481 48.9148 60.624 49.0023C60.9 49.0912 61.1732 49.135 61.4465 49.135C61.7543 49.135 61.9799 49.0912 62.1258 49.0023C62.2744 48.9108 62.3487 48.7888 62.3487 48.6362C62.3487 48.5274 62.3036 48.4345 62.216 48.3602C62.1311 48.2859 62.0197 48.2276 61.8817 48.1851C61.7464 48.14 61.5646 48.0896 61.3351 48.0365C60.9809 47.9556 60.6903 47.872 60.4648 47.7871C60.2379 47.7022 60.0429 47.5682 59.8811 47.3838C59.7219 47.1968 59.6423 46.9473 59.6423 46.6356C59.6423 46.3676 59.7139 46.1235 59.8598 45.9033C60.0045 45.6844 60.2234 45.5106 60.5179 45.3832C60.815 45.2532 61.1759 45.1869 61.6004 45.1869C61.8976 45.1869 62.1868 45.2227 62.4707 45.293C62.7573 45.3646 63.0067 45.4668 63.219 45.6008L62.8846 46.418C62.4561 46.1739 62.0263 46.0518 61.5951 46.0518C61.294 46.0518 61.0711 46.1023 60.9265 46.2004C60.7806 46.296 60.7089 46.4233 60.7089 46.5825C60.7089 46.7417 60.7912 46.8611 60.9583 46.9381C61.1242 47.0163 61.3789 47.0919 61.7225 47.1662C62.0754 47.2511 62.3659 47.3361 62.5928 47.421C62.8183 47.5059 63.012 47.6385 63.1712 47.819C63.3331 47.9994 63.4153 48.2461 63.4153 48.5566C63.4153 48.8219 63.341 49.0647 63.1924 49.2836C63.0438 49.5038 62.821 49.6789 62.5238 49.809C62.2266 49.9363 61.8658 50 61.4412 50Z" fill="black"/>
<path d="M66.5587 46.1421H65.0675V45.2665H69.1218V46.1421H67.6359V49.9204H66.5587V46.1421Z" fill="black"/>
<path d="M73.3739 48.27V49.9204H72.2967V48.2594L70.4924 45.2665H71.6387L72.8804 47.3361L74.1275 45.2665H75.1835L73.3739 48.27Z" fill="black"/>
<path d="M77.0725 45.2665H78.1498V49.0448H80.4847V49.9204H77.0725V45.2665Z" fill="black"/>
<path d="M86.1295 49.0554V49.9204H82.5262V45.2665H86.0446V46.1314H83.5982V47.1397H85.758V47.9782H83.5982V49.0554H86.1295Z" fill="black"/>
</svg>
